<svg xmlns="http://www.w3.org/2000/svg" width="58" height="58" viewBox="0 0 58 58" fill="none">
<path fill-rule="evenodd" clip-rule="evenodd" d="M11.8198 10.2947C10.8175 10.2947 10.005 11.1072 10.005 12.1095V20.8949C10.005 21.8972 10.8175 22.7097 11.8198 22.7097H13.871C13.875 22.7097 13.879 22.7097 13.8829 22.7097H19.0387C21.0433 22.7097 22.6684 24.3347 22.6684 26.3393V31.4951L22.6683 31.5057V31.6607C22.6683 33.6652 21.0433 35.2903 19.0387 35.2903L16.5436 35.2903H11.8198C10.8175 35.2903 10.005 36.1028 10.005 37.1051V45.8905C10.005 46.8928 10.8175 47.7053 11.8198 47.7053H20.6052C21.6075 47.7053 22.42 46.8928 22.42 45.8905V41.9944H22.4201V38.8371C22.4201 36.8326 24.0451 35.2075 26.0497 35.2075H26.7846L26.7946 35.2075H31.9504C33.955 35.2075 35.58 36.8325 35.58 38.8371V43.9929C35.58 43.9981 35.58 44.0033 35.58 44.0084V45.8905C35.58 46.8928 36.3925 47.7053 37.3948 47.7053H46.1802C47.1825 47.7053 47.995 46.8928 47.995 45.8905V37.1051C47.995 36.1028 47.1825 35.2903 46.1802 35.2903H44.1263C44.1233 35.2903 44.1202 35.2903 44.1171 35.2903H38.9613C36.9567 35.2903 35.3317 33.6653 35.3317 31.6607V26.5049L35.3317 26.4942V26.3393C35.3317 24.3347 36.9567 22.7097 38.9613 22.7097H44.1171C44.1191 22.7097 44.1211 22.7097 44.1231 22.7097H46.1802C47.1825 22.7097 47.995 21.8972 47.995 20.8949V12.1095C47.995 11.1072 47.1825 10.2947 46.1802 10.2947H37.3948C36.3925 10.2947 35.58 11.1072 35.58 12.1095V13.9971C35.58 14.0004 35.58 14.0038 35.58 14.0071V19.1629C35.58 21.1674 33.955 22.7925 31.9504 22.7925H26.7946L26.7839 22.7925H26.0497C24.0451 22.7925 22.42 21.1674 22.42 19.1629V14.0071C22.42 14.0058 22.42 14.0046 22.42 14.0033V12.1095C22.42 11.1072 21.6075 10.2947 20.6052 10.2947H11.8198Z" fill="#FCFCFC"/>
</svg>